<svg xmlns="http://www.w3.org/2000/svg" xmlns:xlink="http://www.w3.org/1999/xlink" viewBox="0 0 352.63 205.97"><defs><style>.cls-1{fill:none;}.cls-2{fill:#bac1c4;}.cls-3{fill:#e03642;}.cls-4{fill:#92af70;}.cls-5{fill:#49bd97;}.cls-6{fill:#1b9fbc;}.cls-7{clip-path:url(#clip-path);}.cls-8{fill:#dc3842;}</style><clipPath id="clip-path"><circle class="cls-1" cx="95.93" cy="9.97" r="9.97"/></clipPath></defs><g id="SVG-exports"><path class="cls-2" d="M267.89,110.87a2.46,2.46,0,0,0-2.12,1,4.77,4.77,0,0,0-.75,2.86q0,3.83,2.87,3.82a9.07,9.07,0,0,0,2.91-.6v2a8.1,8.1,0,0,1-3.14.59,4.78,4.78,0,0,1-3.81-1.52,6.38,6.38,0,0,1-1.32-4.34,7,7,0,0,1,.65-3.12,4.64,4.64,0,0,1,1.86-2.05,5.49,5.49,0,0,1,2.85-.72,7.63,7.63,0,0,1,3.34.81l-.78,2a11.69,11.69,0,0,0-1.29-.53A3.63,3.63,0,0,0,267.89,110.87Z"/><path class="cls-2" d="M281.11,120.44h-2.39v-5.1c0-1.26-.47-1.89-1.4-1.89a1.59,1.59,0,0,0-1.45.68,4.1,4.1,0,0,0-.44,2.2v4.11H273V108.28h2.39v2.48c0,.19,0,.65-.06,1.36l-.05.7h.12a2.77,2.77,0,0,1,2.53-1.28,3.11,3.11,0,0,1,2.34.83,3.28,3.28,0,0,1,.8,2.37Z"/><path class="cls-2" d="M287.51,120.6a4.53,4.53,0,0,1-3.3-1.17,4.4,4.4,0,0,1-1.18-3.3,4.85,4.85,0,0,1,1.09-3.39,3.93,3.93,0,0,1,3-1.2A3.81,3.81,0,0,1,290,112.6a4,4,0,0,1,1,2.91v1.16h-5.63a2.33,2.33,0,0,0,.6,1.58,2.13,2.13,0,0,0,1.58.57,6.48,6.48,0,0,0,1.49-.16,7.49,7.49,0,0,0,1.47-.53V120a5.36,5.36,0,0,1-1.33.46A8.6,8.6,0,0,1,287.51,120.6Zm-.33-7.36a1.5,1.5,0,0,0-1.19.48,2.18,2.18,0,0,0-.49,1.36h3.34a2,2,0,0,0-.46-1.36A1.57,1.57,0,0,0,287.18,113.24Z"/><path class="cls-2" d="M297.89,111.54a3.6,3.6,0,0,1,.8.07l-.18,2.24a2.41,2.41,0,0,0-.7-.08,2.54,2.54,0,0,0-1.78.58,2.14,2.14,0,0,0-.64,1.64v4.45H293V111.7h1.81l.35,1.47h.11a3.37,3.37,0,0,1,1.1-1.18A2.7,2.7,0,0,1,297.89,111.54Z"/><path class="cls-2" d="M305.15,111.54a3.69,3.69,0,0,1,.81.07l-.18,2.24a3,3,0,0,0-2.48.5,2.1,2.1,0,0,0-.64,1.64v4.45h-2.38V111.7h1.8l.35,1.47h.12a3.28,3.28,0,0,1,1.1-1.18A2.69,2.69,0,0,1,305.15,111.54Z"/><path class="cls-2" d="M306.29,111.7h2.61l1.65,4.92a6.75,6.75,0,0,1,.29,1.51h.05a6.64,6.64,0,0,1,.33-1.51l1.62-4.92h2.55l-3.69,9.86a4.23,4.23,0,0,1-1.45,2,3.62,3.62,0,0,1-2.2.68,5.47,5.47,0,0,1-1.21-.13v-1.89a4,4,0,0,0,.94.1,1.66,1.66,0,0,0,1.1-.39,2.43,2.43,0,0,0,.74-1.16l.14-.43Z"/><path class="cls-2" d="M328.88,112.58a3.51,3.51,0,0,1-1.15,2.82,4.94,4.94,0,0,1-3.28,1h-1v4.06H321V109h3.65a4.9,4.9,0,0,1,3.16.89A3.28,3.28,0,0,1,328.88,112.58Zm-5.47,1.81h.8a2.62,2.62,0,0,0,1.67-.44,1.53,1.53,0,0,0,.55-1.28,1.58,1.58,0,0,0-.46-1.26,2.19,2.19,0,0,0-1.46-.41h-1.1Z"/><path class="cls-2" d="M330.75,109.45q0-1.17,1.29-1.17c.87,0,1.3.39,1.3,1.17a1.15,1.15,0,0,1-.32.86,1.36,1.36,0,0,1-1,.31Q330.75,110.62,330.75,109.45Zm2.48,11h-2.38V111.7h2.38Z"/><path class="cls-2" d="M339.28,120.6c-2.72,0-4.08-1.5-4.08-4.48a4.75,4.75,0,0,1,1.11-3.4,4.14,4.14,0,0,1,3.18-1.18,6.17,6.17,0,0,1,2.72.59L341.5,114a10.2,10.2,0,0,0-1-.37,3.32,3.32,0,0,0-1-.15q-1.86,0-1.86,2.64c0,1.71.62,2.57,1.86,2.57a4.28,4.28,0,0,0,1.27-.19,4.5,4.5,0,0,0,1.17-.57v2a3.78,3.78,0,0,1-1.16.5A6.22,6.22,0,0,1,339.28,120.6Z"/><path class="cls-2" d="M346.25,115.69l1-1.33,2.45-2.66h2.69L349,115.49l3.68,5h-2.75l-2.52-3.54-1,.82v2.72H344V108.28h2.38v5.42l-.13,2Z"/><circle class="cls-3" cx="313.45" cy="94.97" r="7.94"/><path class="cls-3" d="M305.16,89.1a7.94,7.94,0,1,0,0,11.74,1,1,0,0,0,.19-1.22,9.34,9.34,0,0,1,0-9.3A1,1,0,0,0,305.16,89.1Z"/><path class="cls-4" d="M298.3,85.19c.16-2.8,1.58-12.26,13.16-13.88a2.94,2.94,0,0,0,1.59-.72,5.17,5.17,0,0,0,.53-.52.71.71,0,0,1,1-.07l0,0a.69.69,0,0,1,.12.92c-1.06,1.53-3.86,6.59-1.18,13.87a.78.78,0,0,1-.72,1h0a.77.77,0,0,1-.72-.49,19,19,0,0,1-.48-11.18,1.17,1.17,0,0,0-.31-1.09h0a1.15,1.15,0,0,0-1.08-.28c-2.27.57-9.91,3.16-10.44,12.46a.73.73,0,0,1-.73.7h0A.73.73,0,0,1,298.3,85.19Z"/><path class="cls-4" d="M315,72.84c-.35,2-.79,8.12,7.37,7.61a.53.53,0,0,0,.48-.68c-.5-1.71-2.3-6.33-7.12-7.42A.61.61,0,0,0,315,72.84Z"/><polygon class="cls-3" points="240.66 115.14 240.66 123.72 236.82 119.43 232.99 115.14 236.82 110.85 240.66 106.56 240.66 115.14"/><rect class="cls-3" x="245.2" y="105.87" width="6.01" height="18.54" transform="translate(363.34 -133.06) rotate(90)"/><path class="cls-2" d="M163.55,60.2h-2.07V50.3h5.68V52h-3.61v2.56h3.36v1.71h-3.36Z"/><path class="cls-2" d="M172.36,60.34a3.93,3.93,0,0,1-2.86-1,3.8,3.8,0,0,1-1-2.86,4.21,4.21,0,0,1,.95-2.94,3.4,3.4,0,0,1,2.63-1,3.36,3.36,0,0,1,2.5.91,3.46,3.46,0,0,1,.9,2.53v1h-4.89a2,2,0,0,0,.53,1.38,1.81,1.81,0,0,0,1.36.49,5.46,5.46,0,0,0,1.3-.14,6.71,6.71,0,0,0,1.27-.45V59.8a4.57,4.57,0,0,1-1.16.41A7.15,7.15,0,0,1,172.36,60.34ZM172.07,54a1.31,1.31,0,0,0-1,.42,1.92,1.92,0,0,0-.43,1.18h2.9a1.7,1.7,0,0,0-.4-1.18A1.36,1.36,0,0,0,172.07,54Z"/><path class="cls-2" d="M181.94,60.2l-.4-1h-.06a3.14,3.14,0,0,1-1.07.91,3.48,3.48,0,0,1-1.44.25,2.35,2.35,0,0,1-1.72-.62,2.4,2.4,0,0,1-.63-1.78,2,2,0,0,1,.85-1.78,4.89,4.89,0,0,1,2.54-.63l1.32,0v-.33A1,1,0,0,0,180.15,54a5.32,5.32,0,0,0-2.14.55l-.68-1.4a6.11,6.11,0,0,1,2.9-.68,3.66,3.66,0,0,1,2.34.66,2.46,2.46,0,0,1,.81,2v5Zm-.61-3.5-.8,0a2.55,2.55,0,0,0-1.34.33,1,1,0,0,0-.45.91c0,.58.34.87,1,.87a1.62,1.62,0,0,0,1.15-.41,1.48,1.48,0,0,0,.43-1.1Z"/><path class="cls-2" d="M188.69,58.69a4.41,4.41,0,0,0,1.31-.23V60a4.67,4.67,0,0,1-1.9.35,2.32,2.32,0,0,1-1.81-.63,2.74,2.74,0,0,1-.56-1.88V54.18h-1v-.87l1.14-.69.59-1.6h1.32v1.61h2.12v1.55h-2.12v3.65a.81.81,0,0,0,.25.65A1,1,0,0,0,188.69,58.69Z"/><path class="cls-2" d="M196.89,60.2l-.28-1h-.11a2.14,2.14,0,0,1-.94.81,3.23,3.23,0,0,1-1.39.29,2.66,2.66,0,0,1-2-.71,2.9,2.9,0,0,1-.67-2.06V52.63h2.06v4.43a2.13,2.13,0,0,0,.29,1.22,1.06,1.06,0,0,0,.93.41,1.39,1.39,0,0,0,1.25-.57,3.6,3.6,0,0,0,.39-1.93V52.63h2.06V60.2Z"/><path class="cls-2" d="M204.87,52.49a3.44,3.44,0,0,1,.7.06l-.16,1.94a2.61,2.61,0,0,0-2.15.44,1.82,1.82,0,0,0-.55,1.42V60.2h-2.07V52.63h1.57l.3,1.28h.1a2.85,2.85,0,0,1,.95-1A2.36,2.36,0,0,1,204.87,52.49Z"/><path class="cls-2" d="M210.37,60.34a3.93,3.93,0,0,1-2.86-1,3.8,3.8,0,0,1-1-2.86,4.21,4.21,0,0,1,1-2.94,3.4,3.4,0,0,1,2.63-1,3.36,3.36,0,0,1,2.5.91,3.46,3.46,0,0,1,.9,2.53v1h-4.89a2.06,2.06,0,0,0,.52,1.38,1.85,1.85,0,0,0,1.37.49,5.46,5.46,0,0,0,1.3-.14,6.71,6.71,0,0,0,1.27-.45V59.8a4.57,4.57,0,0,1-1.16.41A7.15,7.15,0,0,1,210.37,60.34ZM210.08,54a1.31,1.31,0,0,0-1,.42,1.92,1.92,0,0,0-.43,1.18h2.9a1.7,1.7,0,0,0-.4-1.18A1.36,1.36,0,0,0,210.08,54Z"/><path class="cls-2" d="M218.9,50.3H222a5.92,5.92,0,0,1,3.06.6,2.08,2.08,0,0,1,1,1.91,2.42,2.42,0,0,1-.41,1.45,1.69,1.69,0,0,1-1.11.69V55a2.2,2.2,0,0,1,1.36.78,2.64,2.64,0,0,1,.41,1.53,2.51,2.51,0,0,1-1,2.12,4.24,4.24,0,0,1-2.65.75H218.9Zm2.1,3.92h1.22a2.22,2.22,0,0,0,1.24-.26,1,1,0,0,0,.38-.87.88.88,0,0,0-.42-.82,2.7,2.7,0,0,0-1.31-.25H221Zm0,1.67v2.58h1.37a2,2,0,0,0,1.28-.33,1.24,1.24,0,0,0,.41-1c0-.82-.58-1.23-1.76-1.23Z"/><path class="cls-2" d="M232.28,52.49a3.37,3.37,0,0,1,.7.06l-.15,1.94a2.61,2.61,0,0,0-2.15.44,1.83,1.83,0,0,0-.56,1.42V60.2h-2.06V52.63h1.56l.31,1.28h.1a2.77,2.77,0,0,1,.95-1A2.36,2.36,0,0,1,232.28,52.49Z"/><path class="cls-2" d="M239.17,60.2l-.4-1h-.06a3.14,3.14,0,0,1-1.07.91,3.48,3.48,0,0,1-1.44.25,2.35,2.35,0,0,1-1.72-.62,2.4,2.4,0,0,1-.62-1.78,2,2,0,0,1,.84-1.78,4.89,4.89,0,0,1,2.54-.63l1.32,0v-.33A1,1,0,0,0,237.38,54a5.32,5.32,0,0,0-2.14.55l-.68-1.4a6.11,6.11,0,0,1,2.9-.68,3.66,3.66,0,0,1,2.34.66,2.46,2.46,0,0,1,.81,2v5Zm-.61-3.5-.8,0a2.55,2.55,0,0,0-1.34.33A1,1,0,0,0,236,58c0,.58.33.87,1,.87a1.62,1.62,0,0,0,1.15-.41,1.48,1.48,0,0,0,.43-1.1Z"/><path class="cls-2" d="M249.72,60.2h-2.06V55.78a2.19,2.19,0,0,0-.29-1.23,1.08,1.08,0,0,0-.93-.41,1.39,1.39,0,0,0-1.25.58,3.58,3.58,0,0,0-.39,1.92V60.2h-2.07V52.63h1.58l.28,1h.12a2.2,2.2,0,0,1,.95-.83,3.18,3.18,0,0,1,1.38-.28,2.67,2.67,0,0,1,2,.71,2.87,2.87,0,0,1,.68,2.07Z"/><path class="cls-2" d="M254.93,60.34q-3.54,0-3.54-3.88a4.14,4.14,0,0,1,1-3,3.61,3.61,0,0,1,2.76-1,5.31,5.31,0,0,1,2.36.51l-.61,1.6c-.33-.13-.63-.23-.91-.32a3,3,0,0,0-.84-.12c-1.08,0-1.61.76-1.61,2.29s.53,2.22,1.61,2.22a3.84,3.84,0,0,0,1.1-.16,4,4,0,0,0,1-.5v1.77a3.3,3.3,0,0,1-1,.44A5.77,5.77,0,0,1,254.93,60.34Z"/><path class="cls-2" d="M266,60.2h-2.06V55.78c0-1.09-.41-1.64-1.22-1.64a1.41,1.41,0,0,0-1.26.59,3.67,3.67,0,0,0-.38,1.91V60.2H259V49.67h2.07v2.14c0,.17,0,.56-.05,1.18l-.05.61h.11a2.39,2.39,0,0,1,2.2-1.11,2.66,2.66,0,0,1,2,.72,2.85,2.85,0,0,1,.69,2.06Z"/><path class="cls-2" d="M4.17,35.61,1.8,27.88H1.74c.08,1.58.13,2.62.13,3.15v4.58H0V25.76H2.84l2.34,7.53h0l2.47-7.53h2.84v9.85H8.59V31c0-.22,0-.48,0-.76s0-1.05.09-2.29H8.63L6.09,35.61Z"/><path class="cls-2" d="M17.64,35.61l-.4-1h0a3.23,3.23,0,0,1-1.07.91,3.63,3.63,0,0,1-1.43.25A2.31,2.31,0,0,1,13,35.13a2.38,2.38,0,0,1-.63-1.77,2,2,0,0,1,.84-1.77A4.88,4.88,0,0,1,15.72,31l1.31,0v-.33a1,1,0,0,0-1.17-1.14,5.37,5.37,0,0,0-2.12.54l-.69-1.39a6.19,6.19,0,0,1,2.89-.68,3.61,3.61,0,0,1,2.33.66,2.47,2.47,0,0,1,.8,2v5ZM17,32.12l-.79,0a2.56,2.56,0,0,0-1.34.32,1,1,0,0,0-.44.91c0,.58.34.86,1,.86a1.53,1.53,0,0,0,1.14-.41A1.41,1.41,0,0,0,17,32.74Z"/><path class="cls-2" d="M21.1,26.13c0-.67.38-1,1.12-1s1.12.33,1.12,1a.94.94,0,0,1-.28.74,1.18,1.18,0,0,1-.84.27C21.48,27.14,21.1,26.8,21.1,26.13Zm2.15,9.48H21.19V28.08h2.06Z"/><path class="cls-2" d="M32.36,35.61H30.3v-4.4A2.06,2.06,0,0,0,30,30a1.05,1.05,0,0,0-.92-.41,1.38,1.38,0,0,0-1.25.58,3.63,3.63,0,0,0-.38,1.91v3.54H25.4V28.08H27l.28,1h.11a2.17,2.17,0,0,1,.95-.82,3.17,3.17,0,0,1,1.37-.28,2.63,2.63,0,0,1,2,.71,2.86,2.86,0,0,1,.68,2.05Z"/><path class="cls-2" d="M38.22,25.76h3.07a5.86,5.86,0,0,1,3,.6,2.07,2.07,0,0,1,1,1.89,2.37,2.37,0,0,1-.42,1.45,1.6,1.6,0,0,1-1.1.68v.07a2.15,2.15,0,0,1,1.35.78,2.84,2.84,0,0,1-.56,3.63,4.22,4.22,0,0,1-2.64.75H38.22Zm2.09,3.9h1.21a2.25,2.25,0,0,0,1.23-.26,1,1,0,0,0,.39-.87.86.86,0,0,0-.42-.81,2.59,2.59,0,0,0-1.31-.25h-1.1Zm0,1.66v2.57h1.36A2,2,0,0,0,43,33.56a1.23,1.23,0,0,0,.41-1c0-.82-.59-1.23-1.75-1.23Z"/><path class="cls-2" d="M51.54,27.94a3.27,3.27,0,0,1,.69.06l-.15,1.92a2.68,2.68,0,0,0-.61-.06,2.22,2.22,0,0,0-1.53.5,1.82,1.82,0,0,0-.55,1.42v3.83H47.33V28.08h1.56l.3,1.26h.11a2.88,2.88,0,0,1,.94-1A2.4,2.4,0,0,1,51.54,27.94Z"/><path class="cls-2" d="M58.39,35.61l-.4-1h-.05a3.23,3.23,0,0,1-1.07.91,3.63,3.63,0,0,1-1.43.25,2.31,2.31,0,0,1-1.71-.62,2.38,2.38,0,0,1-.63-1.77,2,2,0,0,1,.84-1.77A4.88,4.88,0,0,1,56.47,31l1.31,0v-.33a1,1,0,0,0-1.17-1.14,5.37,5.37,0,0,0-2.12.54L53.8,28.6a6.19,6.19,0,0,1,2.89-.68,3.58,3.58,0,0,1,2.32.66,2.44,2.44,0,0,1,.81,2v5Zm-.61-3.49-.79,0a2.56,2.56,0,0,0-1.34.32,1,1,0,0,0-.44.91c0,.58.34.86,1,.86a1.53,1.53,0,0,0,1.14-.41,1.41,1.41,0,0,0,.43-1.09Z"/><path class="cls-2" d="M68.9,35.61H66.84v-4.4A2.13,2.13,0,0,0,66.55,30a1.05,1.05,0,0,0-.92-.41,1.38,1.38,0,0,0-1.25.58A3.53,3.53,0,0,0,64,32.07v3.54H61.94V28.08h1.57l.28,1h.11a2.17,2.17,0,0,1,.95-.82,3.17,3.17,0,0,1,1.37-.28,2.59,2.59,0,0,1,2,.71,2.82,2.82,0,0,1,.69,2.05Z"/><path class="cls-2" d="M74.07,35.75c-2.34,0-3.52-1.29-3.52-3.86a4.13,4.13,0,0,1,1-2.94,3.57,3.57,0,0,1,2.74-1,5.24,5.24,0,0,1,2.35.51L76,30a9,9,0,0,0-.9-.32,3.06,3.06,0,0,0-.84-.13c-1.07,0-1.6.76-1.6,2.28s.53,2.21,1.6,2.21a3.52,3.52,0,0,0,1.1-.16,3.76,3.76,0,0,0,1-.49v1.76a3.36,3.36,0,0,1-1,.44A5.77,5.77,0,0,1,74.07,35.75Z"/><path class="cls-2" d="M85.06,35.61H83v-4.4c0-1.09-.41-1.63-1.21-1.63a1.38,1.38,0,0,0-1.25.59,3.52,3.52,0,0,0-.39,1.9v3.54h-2V25.13h2v2.13c0,.17,0,.56,0,1.17l-.05.61h.11a2.36,2.36,0,0,1,2.18-1.1,2.66,2.66,0,0,1,2,.71,2.84,2.84,0,0,1,.68,2.05Z"/><path class="cls-2" d="M171.5,70.89a1.82,1.82,0,0,0-1.57.76,3.57,3.57,0,0,0-.56,2.13c0,1.89.71,2.84,2.13,2.84a6.71,6.71,0,0,0,2.17-.45v1.51a6.06,6.06,0,0,1-2.34.44A3.55,3.55,0,0,1,168.5,77a4.72,4.72,0,0,1-1-3.22,5.25,5.25,0,0,1,.48-2.32,3.48,3.48,0,0,1,1.38-1.53,4.17,4.17,0,0,1,2.12-.53A5.65,5.65,0,0,1,174,70l-.58,1.46a8.62,8.62,0,0,0-1-.39A2.69,2.69,0,0,0,171.5,70.89Z"/><path class="cls-2" d="M181.23,74.74a3.46,3.46,0,0,1-.84,2.48,3,3,0,0,1-2.32.9,3.26,3.26,0,0,1-1.65-.41,2.79,2.79,0,0,1-1.1-1.18,3.9,3.9,0,0,1-.38-1.79,3.44,3.44,0,0,1,.83-2.47,3,3,0,0,1,2.33-.88,3.3,3.3,0,0,1,1.65.4,2.71,2.71,0,0,1,1.1,1.17A4,4,0,0,1,181.23,74.74Zm-4.49,0a2.75,2.75,0,0,0,.32,1.46,1.32,1.32,0,0,0,2.05,0,2.71,2.71,0,0,0,.31-1.46,2.75,2.75,0,0,0-.31-1.44,1.15,1.15,0,0,0-1-.49,1.14,1.14,0,0,0-1,.48A2.79,2.79,0,0,0,176.74,74.74Z"/><path class="cls-2" d="M188.5,78h-1.77V74.21a2,2,0,0,0-.23-1.06.85.85,0,0,0-.74-.35,1.09,1.09,0,0,0-1,.5,3.36,3.36,0,0,0-.31,1.65v3h-1.77V71.51H184l.24.83h.1a1.84,1.84,0,0,1,.76-.7,2.41,2.41,0,0,1,1.13-.25,2,2,0,0,1,2,1h.16a1.7,1.7,0,0,1,.77-.7,2.51,2.51,0,0,1,1.14-.25A2.28,2.28,0,0,1,192,72a2.48,2.48,0,0,1,.57,1.82V78h-1.78V74.21a1.92,1.92,0,0,0-.23-1.06.84.84,0,0,0-.74-.35,1.1,1.1,0,0,0-1,.47,2.58,2.58,0,0,0-.33,1.47Z"/><path class="cls-2" d="M200.18,78h-1.77V74.21a1.91,1.91,0,0,0-.24-1.06.82.82,0,0,0-.74-.35,1.06,1.06,0,0,0-1,.5,3.25,3.25,0,0,0-.31,1.65v3h-1.77V71.51h1.35l.24.83h.1a1.76,1.76,0,0,1,.75-.7,2.44,2.44,0,0,1,1.13-.25,2,2,0,0,1,2,1h.16a1.7,1.7,0,0,1,.77-.7,2.45,2.45,0,0,1,1.14-.25,2.29,2.29,0,0,1,1.67.56,2.48,2.48,0,0,1,.57,1.82V78h-1.78V74.21a2,2,0,0,0-.23-1.06.85.85,0,0,0-.75-.35,1.11,1.11,0,0,0-1,.47,2.67,2.67,0,0,0-.32,1.47Z"/><path class="cls-2" d="M206,69.83c0-.58.32-.86,1-.86s1,.28,1,.86a.83.83,0,0,1-.24.64,1,1,0,0,1-.73.23Q206,70.7,206,69.83ZM207.81,78H206V71.51h1.77Z"/><path class="cls-2" d="M212.41,76.7a3.63,3.63,0,0,0,1.11-.2v1.32a3.91,3.91,0,0,1-1.62.3,2,2,0,0,1-1.55-.54,2.37,2.37,0,0,1-.49-1.61V72.84H209v-.75l1-.59.51-1.37h1.13v1.38h1.82v1.33h-1.82V76a.69.69,0,0,0,.22.55A.82.82,0,0,0,212.41,76.7Z"/><path class="cls-2" d="M223.4,78h-5.93V76.75l2.13-2.15c.63-.65,1-1.1,1.24-1.35a2.89,2.89,0,0,0,.41-.69,1.65,1.65,0,0,0,.13-.66,1,1,0,0,0-.28-.76,1.08,1.08,0,0,0-.75-.25,2.17,2.17,0,0,0-1,.22,5,5,0,0,0-1,.65l-1-1.16a6.72,6.72,0,0,1,1-.75,3.89,3.89,0,0,1,.9-.34,4.63,4.63,0,0,1,1.1-.12,3.27,3.27,0,0,1,1.4.29,2.12,2.12,0,0,1,1.28,2,3.07,3.07,0,0,1-.2,1.1,4.29,4.29,0,0,1-.64,1,15.87,15.87,0,0,1-1.52,1.54l-1.1,1v.08h3.7Z"/><path class="cls-2" d="M227.34,78.12q-3,0-3-3.33a3.55,3.55,0,0,1,.83-2.53,3.09,3.09,0,0,1,2.36-.87,4.44,4.44,0,0,1,2,.44L229,73.2c-.28-.11-.54-.21-.78-.28a2.57,2.57,0,0,0-.72-.11c-.92,0-1.38.66-1.38,2s.46,1.9,1.38,1.9a3.21,3.21,0,0,0,.95-.13,3.9,3.9,0,0,0,.87-.43v1.51a2.75,2.75,0,0,1-.87.38A4.82,4.82,0,0,1,227.34,78.12Z"/><path class="cls-2" d="M171.23,113.22a1.83,1.83,0,0,0-1.57.77,3.57,3.57,0,0,0-.56,2.13c0,1.89.71,2.83,2.13,2.83a6.66,6.66,0,0,0,2.17-.44V120a6.06,6.06,0,0,1-2.34.43,3.55,3.55,0,0,1-2.83-1.12,4.78,4.78,0,0,1-1-3.23,5.24,5.24,0,0,1,.48-2.31,3.39,3.39,0,0,1,1.39-1.53,4,4,0,0,1,2.11-.53,5.85,5.85,0,0,1,2.49.59l-.58,1.47c-.32-.15-.64-.28-1-.4A2.93,2.93,0,0,0,171.23,113.22Z"/><path class="cls-2" d="M181,117.08a3.52,3.52,0,0,1-.83,2.48,3.07,3.07,0,0,1-2.33.89,3.16,3.16,0,0,1-1.65-.41,2.71,2.71,0,0,1-1.1-1.17,4,4,0,0,1-.38-1.79,3.42,3.42,0,0,1,.83-2.47,3,3,0,0,1,2.33-.89,3.28,3.28,0,0,1,1.65.41,2.71,2.71,0,0,1,1.1,1.17A4,4,0,0,1,181,117.08Zm-4.49,0a2.75,2.75,0,0,0,.32,1.46,1.32,1.32,0,0,0,2.05,0,3.57,3.57,0,0,0,0-2.91,1.33,1.33,0,0,0-2.05,0A2.66,2.66,0,0,0,176.47,117.08Z"/><path class="cls-2" d="M188.24,120.34h-1.77v-3.79a1.91,1.91,0,0,0-.24-1.06.84.84,0,0,0-.74-.35,1.09,1.09,0,0,0-1,.5,3.31,3.31,0,0,0-.31,1.64v3.06h-1.77v-6.49h1.36l.24.83h.09a1.78,1.78,0,0,1,.76-.7,2.41,2.41,0,0,1,1.13-.26,2,2,0,0,1,2,1h.16a1.72,1.72,0,0,1,.77-.71,2.66,2.66,0,0,1,1.15-.25,2.27,2.27,0,0,1,1.67.57,2.51,2.51,0,0,1,.56,1.81v4.24h-1.77v-3.79a1.91,1.91,0,0,0-.24-1.06.84.84,0,0,0-.74-.35,1.12,1.12,0,0,0-1,.46,2.62,2.62,0,0,0-.32,1.48Z"/><path class="cls-2" d="M199.91,120.34h-1.77v-3.79a2,2,0,0,0-.23-1.06.85.85,0,0,0-.74-.35,1.07,1.07,0,0,0-1,.5,3.2,3.2,0,0,0-.31,1.64v3.06H194.1v-6.49h1.35l.24.83h.1a1.7,1.7,0,0,1,.75-.7,2.46,2.46,0,0,1,1.14-.26,2,2,0,0,1,2,1h.16a1.72,1.72,0,0,1,.77-.71,2.62,2.62,0,0,1,1.14-.25,2.25,2.25,0,0,1,1.67.57,2.47,2.47,0,0,1,.57,1.81v4.24h-1.78v-3.79a2,2,0,0,0-.23-1.06.85.85,0,0,0-.74-.35,1.14,1.14,0,0,0-1,.46,2.71,2.71,0,0,0-.32,1.48Z"/><path class="cls-2" d="M205.7,112.17q0-.87,1-.87c.65,0,1,.29,1,.87a.84.84,0,0,1-.24.64,1,1,0,0,1-.73.23Q205.7,113,205.7,112.17Zm1.85,8.17h-1.77v-6.49h1.77Z"/><path class="cls-2" d="M212.14,119a4,4,0,0,0,1.11-.2v1.32a4.08,4.08,0,0,1-1.62.29,2,2,0,0,1-1.55-.53,2.38,2.38,0,0,1-.49-1.62v-3.12h-.84v-.75l1-.6.51-1.37h1.14v1.39h1.81v1.33h-1.81v3.12a.69.69,0,0,0,.21.56A.84.84,0,0,0,212.14,119Z"/><path class="cls-2" d="M223.13,120.34H217.2v-1.25l2.13-2.16c.63-.64,1-1.09,1.24-1.34a3.36,3.36,0,0,0,.42-.69,1.93,1.93,0,0,0,.12-.67,1,1,0,0,0-.28-.76,1.13,1.13,0,0,0-.75-.25,2.19,2.19,0,0,0-1,.23,5,5,0,0,0-1,.65l-1-1.16a5.27,5.27,0,0,1,1-.75,3.57,3.57,0,0,1,.9-.34,4.49,4.49,0,0,1,1.09-.12,3.1,3.1,0,0,1,1.4.29,2.15,2.15,0,0,1,1.29,2,2.91,2.91,0,0,1-.21,1.1,4.29,4.29,0,0,1-.64,1.05,17.12,17.12,0,0,1-1.52,1.54l-1.09,1v.08h3.69Z"/><path class="cls-2" d="M228.05,113.72a2.09,2.09,0,0,1,1.8.9,4.15,4.15,0,0,1,.65,2.46,4,4,0,0,1-.67,2.49,2.18,2.18,0,0,1-1.83.88,2.13,2.13,0,0,1-1.79-.83h-.12l-.3.72h-1.35v-9h1.77v2.1c0,.27,0,.7-.07,1.29h.07A2.06,2.06,0,0,1,228.05,113.72Zm-.57,1.42a1.14,1.14,0,0,0-1,.4,2.38,2.38,0,0,0-.31,1.34v.19a2.75,2.75,0,0,0,.31,1.5,1.12,1.12,0,0,0,1,.45,1,1,0,0,0,.87-.5,2.7,2.7,0,0,0,.32-1.46,2.56,2.56,0,0,0-.32-1.44A1,1,0,0,0,227.48,115.14Z"/><path class="cls-2" d="M170.72,156.14a1.83,1.83,0,0,0-1.57.77,3.52,3.52,0,0,0-.56,2.12c0,1.9.71,2.84,2.13,2.84a6.94,6.94,0,0,0,2.17-.44v1.5a6.06,6.06,0,0,1-2.34.44,3.55,3.55,0,0,1-2.83-1.12,4.8,4.8,0,0,1-1-3.23,5.31,5.31,0,0,1,.48-2.32,3.42,3.42,0,0,1,1.39-1.52,4,4,0,0,1,2.11-.54,5.72,5.72,0,0,1,2.49.6l-.58,1.47a7.82,7.82,0,0,0-1-.4A2.93,2.93,0,0,0,170.72,156.14Z"/><path class="cls-2" d="M180.45,160a3.54,3.54,0,0,1-.83,2.48,3.07,3.07,0,0,1-2.33.89,3.26,3.26,0,0,1-1.65-.41,2.71,2.71,0,0,1-1.1-1.17,4.06,4.06,0,0,1-.38-1.79,3.46,3.46,0,0,1,.83-2.48,3.07,3.07,0,0,1,2.33-.88,3.28,3.28,0,0,1,1.65.41,2.74,2.74,0,0,1,1.1,1.16A4,4,0,0,1,180.45,160ZM176,160a2.69,2.69,0,0,0,.32,1.45,1.31,1.31,0,0,0,2.05,0,2.76,2.76,0,0,0,.31-1.46,2.67,2.67,0,0,0-.31-1.45,1.33,1.33,0,0,0-2.05,0A2.66,2.66,0,0,0,176,160Z"/><path class="cls-2" d="M187.73,163.25H186v-3.79a1.86,1.86,0,0,0-.23-1.05.84.84,0,0,0-.74-.35,1.07,1.07,0,0,0-1,.5,3.31,3.31,0,0,0-.31,1.64v3.05h-1.77v-6.49h1.36l.24.83h.09a1.91,1.91,0,0,1,.76-.7,2.54,2.54,0,0,1,1.13-.25,2,2,0,0,1,2,1h.16a1.75,1.75,0,0,1,.77-.7,2.52,2.52,0,0,1,1.15-.25,2.27,2.27,0,0,1,1.67.57,2.51,2.51,0,0,1,.56,1.81v4.23H190v-3.79a1.85,1.85,0,0,0-.24-1.05.84.84,0,0,0-.74-.35,1.09,1.09,0,0,0-1,.46,2.6,2.6,0,0,0-.32,1.48Z"/><path class="cls-2" d="M199.4,163.25h-1.77v-3.79a2,2,0,0,0-.23-1.05.85.85,0,0,0-.74-.35,1.05,1.05,0,0,0-1,.5,3.2,3.2,0,0,0-.31,1.64v3.05h-1.77v-6.49h1.35l.24.83h.1a1.82,1.82,0,0,1,.75-.7,2.58,2.58,0,0,1,1.14-.25,2,2,0,0,1,2,1h.16a1.75,1.75,0,0,1,.77-.7,2.48,2.48,0,0,1,1.14-.25,2.25,2.25,0,0,1,1.67.57,2.47,2.47,0,0,1,.57,1.81v4.23h-1.78v-3.79a2,2,0,0,0-.23-1.05.85.85,0,0,0-.74-.35,1.11,1.11,0,0,0-1,.46,2.69,2.69,0,0,0-.32,1.48Z"/><path class="cls-2" d="M205.19,155.09q0-.87,1-.87c.65,0,1,.29,1,.87a.86.86,0,0,1-.24.64,1,1,0,0,1-.73.23Q205.19,156,205.19,155.09Zm1.85,8.16h-1.77v-6.49H207Z"/><path class="cls-2" d="M211.63,162a4,4,0,0,0,1.11-.2v1.31a3.91,3.91,0,0,1-1.62.3,2,2,0,0,1-1.55-.54,2.33,2.33,0,0,1-.49-1.61v-3.13h-.84v-.75l1-.59.51-1.37h1.14v1.38h1.81v1.33h-1.81v3.13a.7.7,0,0,0,.21.56A.84.84,0,0,0,211.63,162Z"/><path class="cls-2" d="M222.62,163.25h-5.93V162l2.13-2.16c.63-.64,1-1.09,1.24-1.34a3.16,3.16,0,0,0,.42-.7,1.84,1.84,0,0,0,.12-.66,1,1,0,0,0-.28-.76,1.13,1.13,0,0,0-.75-.25,2.19,2.19,0,0,0-1,.23,4.89,4.89,0,0,0-1,.64l-1-1.15a5.87,5.87,0,0,1,1-.76,4,4,0,0,1,.9-.34,4.49,4.49,0,0,1,1.09-.12,3.24,3.24,0,0,1,1.4.29,2.31,2.31,0,0,1,1,.82,2.18,2.18,0,0,1,.34,1.19,2.87,2.87,0,0,1-.21,1.1,4.16,4.16,0,0,1-.64,1.06,17.12,17.12,0,0,1-1.52,1.54l-1.09,1v.08h3.69Z"/><path class="cls-2" d="M228.05,163.25l-.34-.88h-.05a2.49,2.49,0,0,1-.92.78,2.88,2.88,0,0,1-1.23.22,2,2,0,0,1-1.47-.53,2.07,2.07,0,0,1-.54-1.53,1.72,1.72,0,0,1,.72-1.52,4.12,4.12,0,0,1,2.18-.54l1.13,0v-.28a.89.89,0,0,0-1-1,4.66,4.66,0,0,0-1.83.47l-.59-1.19a5.32,5.32,0,0,1,2.49-.59,3.08,3.08,0,0,1,2,.57,2.08,2.08,0,0,1,.7,1.73v4.32Zm-.52-3-.69,0a2.28,2.28,0,0,0-1.15.28.88.88,0,0,0-.37.78c0,.5.28.75.86.75a1.35,1.35,0,0,0,1-.36,1.22,1.22,0,0,0,.37-.94Z"/><rect class="cls-5" x="94.42" y="60.76" width="3.02" height="26.05"/><rect class="cls-5" x="94.42" y="103.69" width="3.02" height="24.55"/><rect class="cls-5" x="94.42" y="145.72" width="3.02" height="25.61"/><rect class="cls-5" x="94.42" y="188.45" width="3.02" height="17.52"/><path class="cls-5" d="M95.93,130.16a7.2,7.2,0,1,1-7.2,7.19,7.2,7.2,0,0,1,7.2-7.19m0-2.77a10,10,0,1,0,10,10,10,10,0,0,0-10-10Z"/><path class="cls-5" d="M95.93,87.65a7.2,7.2,0,1,1-7.2,7.2,7.21,7.21,0,0,1,7.2-7.2m0-2.77a10,10,0,1,0,10,10,10,10,0,0,0-10-10Z"/><path class="cls-5" d="M95.93,45.15a7.19,7.19,0,1,1-7.2,7.19,7.2,7.2,0,0,1,7.2-7.19m0-2.78a10,10,0,1,0,10,10,10,10,0,0,0-10-10Z"/><path class="cls-6" d="M147.57,168.07a10.42,10.42,0,0,1-10.41,10.41h-33v2.78h33a13.21,13.21,0,0,0,13.19-13.19v-.79h-2.78Z"/><rect class="cls-6" x="147.57" y="125.19" width="2.77" height="25.48"/><rect class="cls-6" x="147.57" y="82.54" width="2.77" height="26.16"/><path class="cls-5" d="M96,172.66a7.2,7.2,0,1,1-7.19,7.2,7.21,7.21,0,0,1,7.19-7.2m0-2.77a10,10,0,1,0,10,10,10,10,0,0,0-10-10Z"/><path class="cls-5" d="M95.93,87.65a7.2,7.2,0,1,1-7.2,7.2,7.21,7.21,0,0,1,7.2-7.2m0-2.77a10,10,0,1,0,10,10,10,10,0,0,0-10-10Z"/><path class="cls-6" d="M149,152.07a7.2,7.2,0,1,1-7.19,7.2,7.2,7.2,0,0,1,7.19-7.2m0-2.77a10,10,0,1,0,10,10,10,10,0,0,0-10-10Z"/><path class="cls-6" d="M149,109.59a7.2,7.2,0,1,1-7.19,7.2,7.2,7.2,0,0,1,7.19-7.2m0-2.77a10,10,0,1,0,10,10,10,10,0,0,0-10-10Z"/><path class="cls-6" d="M149,66.92a7.2,7.2,0,1,1-7.19,7.19A7.2,7.2,0,0,1,149,66.92m0-2.77a10,10,0,1,0,10,10,10,10,0,0,0-10-10Z"/><path class="cls-6" d="M149,109.59a7.2,7.2,0,1,1-7.19,7.2,7.2,7.2,0,0,1,7.19-7.2m0-2.77a10,10,0,1,0,10,10,10,10,0,0,0-10-10Z"/><path class="cls-3" d="M133.58,117.29h-7.36a4.89,4.89,0,0,1-4.88-4.88V13.71a3.25,3.25,0,0,0-3.25-3.24h-6.47v-1h6.47a4.25,4.25,0,0,1,4.25,4.24v98.7a3.88,3.88,0,0,0,3.88,3.88h7.36Z"/><polygon class="cls-3" points="114.94 5.88 115.62 6.61 112.01 9.97 115.62 13.32 114.94 14.06 110.54 9.97 114.94 5.88"/><g class="cls-7"><path class="cls-8" d="M96.9,2.81l.45-3.35H94.5L95,2.81a7.66,7.66,0,0,1,1-.06A7.77,7.77,0,0,1,96.9,2.81Z"/><path class="cls-8" d="M91.91.15,89.44,1.58l2.07,2.68a7,7,0,0,1,1.68-1Z"/><path class="cls-8" d="M87.54,3.48,86.11,6l3.14,1.28a6.69,6.69,0,0,1,1-1.68Z"/><path class="cls-8" d="M88.77,9l-3.35-.46v2.85l3.35-.45a7.77,7.77,0,0,1-.06-1A7.66,7.66,0,0,1,88.77,9Z"/><path class="cls-8" d="M86.11,14l1.43,2.47,2.68-2.08a6.69,6.69,0,0,1-1-1.68Z"/><path class="cls-8" d="M89.44,18.36l2.47,1.42,1.28-3.13a7.36,7.36,0,0,1-1.68-1Z"/><path class="cls-8" d="M95,17.12l-.46,3.36h2.85l-.45-3.36a7.77,7.77,0,0,1-1,.07A7.63,7.63,0,0,1,95,17.12Z"/><path class="cls-8" d="M98.66,16.65,100,19.78l2.47-1.42-2.08-2.68A7.36,7.36,0,0,1,98.66,16.65Z"/><path class="cls-8" d="M105.74,14l-3.13-1.29a7.36,7.36,0,0,1-1,1.68l2.68,2.08Z"/><path class="cls-8" d="M106.44,8.54,103.08,9a7.63,7.63,0,0,1,.07,1,7.77,7.77,0,0,1-.07,1l3.36.45Z"/><path class="cls-8" d="M105.74,6l-1.42-2.47-2.68,2.07a7.36,7.36,0,0,1,1,1.68Z"/><path class="cls-8" d="M102.42,1.58,100,.15,98.66,3.28a7,7,0,0,1,1.68,1Z"/></g><rect class="cls-8" x="94.42" y="37.56" width="2.82" height="3.71"/><rect class="cls-8" x="94.42" y="32.27" width="2.82" height="3.71"/><rect class="cls-8" x="94.42" y="26.98" width="2.82" height="3.71"/><rect class="cls-8" x="94.42" y="21.7" width="2.82" height="3.71"/></g></svg>